<svg xmlns="http://www.w3.org/2000/svg" viewBox="0 0 100 100" color="#d9b45f"><rect width="100" height="100" rx="22" fill="#162e59"/><g transform="translate(50 50) scale(0.980) translate(-50.05 -49.90)"><path fill="currentColor" transform="scale(0.11898) translate(-205.3 -199.8)" d="M 631.478 286.036 C 630.707 287.284, 630.729 338.008, 631.515 371 C 632.351 406.042, 635.841 429.214, 643.895 453.188 C 649.866 470.961, 650.225 480.267, 645.646 498.581 C 643.710 506.326, 640.975 518.476, 639.570 525.581 C 638.164 532.687, 636.563 540.665, 636.011 543.310 C 633.615 554.798, 631.119 590.216, 630.521 621.214 C 629.881 654.428, 630.171 658, 633.500 658 C 635.759 658, 636.573 655.481, 639.464 639.532 C 645.587 605.761, 649.259 591.393, 658.612 564.609 C 672.526 524.766, 697.428 481.654, 722.377 454.217 C 731.037 444.693, 731.105 443.058, 723.185 434.663 C 711.529 422.310, 687.073 389.782, 674.395 369.769 C 663.122 351.976, 649.751 323.994, 642.615 303.264 C 637.411 288.146, 636.179 285.454, 634.344 285.193 C 633.159 285.024, 631.869 285.403, 631.478 286.036 M 616.638 288.250 C 615.863 289.488, 613.101 296.575, 610.500 304 C 604.776 320.337, 592.045 348.025, 584.289 361 C 571.534 382.340, 550.101 411.817, 534.328 429.712 C 522.316 443.341, 522.026 444.923, 529.967 453.447 C 538.842 462.973, 553.019 480.974, 557.365 488.236 C 559.756 492.231, 563.506 498.425, 565.699 502 C 591.224 543.627, 607.823 593.210, 616.584 654 C 617.374 659.484, 618.606 662, 620.500 662 C 623.709 662, 624.012 658.356, 623.469 626.308 C 622.727 582.530, 621.025 559.532, 616.973 538.500 C 613.158 518.701, 611.468 510.987, 608.330 499.061 C 603.555 480.910, 603.781 470.019, 609.266 454 C 619.921 422.879, 621.895 405.898, 622.698 338.437 C 623.285 289.138, 623.093 286, 619.488 286 C 618.695 286, 617.412 287.012, 616.638 288.250 M 328.096 481.330 C 318.069 483.993, 320.561 488.147, 335.034 492.894 C 361.204 501.477, 387.688 525.507, 403.924 555.398 C 408.915 564.587, 416.643 585.959, 420.413 601 C 430.322 640.533, 433.041 648.153, 443.324 665.214 C 461.378 695.166, 485.300 712.796, 527.173 727.007 C 543.210 732.449, 554.684 738.436, 565.044 746.766 C 575.103 754.853, 587.189 768.322, 593.562 778.548 C 601.666 791.550, 609.501 817.101, 614.551 847 C 615.992 855.525, 617.772 863.124, 618.507 863.887 C 620.961 866.431, 622.692 864.452, 623.362 858.335 C 624.017 852.368, 623.327 788.338, 622.596 787.154 C 622.373 786.794, 621.691 779.525, 621.080 771 C 620.468 762.475, 619.547 752.800, 619.032 749.500 C 618.517 746.200, 617.611 739.675, 617.018 735 C 607.038 656.317, 581.176 599.566, 537.690 560.929 C 514.883 540.666, 480.199 519.611, 442 502.840 C 420.726 493.501, 393.006 485.486, 373.500 483.035 C 368.550 482.414, 361.488 481.476, 357.807 480.952 C 348.895 479.684, 333.561 479.879, 328.096 481.330 M 897.884 480.423 C 897.546 480.776, 891.471 481.716, 884.384 482.512 C 877.298 483.308, 869.925 484.433, 868 485.013 C 866.075 485.593, 860.024 486.963, 854.554 488.058 C 837.950 491.381, 819.833 498.579, 787.788 514.586 C 744.903 536.008, 718.580 554.708, 698.454 578.053 C 671.492 609.327, 654.911 644.359, 643.924 693.264 C 641.855 702.470, 641.293 705.444, 638.392 722.500 C 633.227 752.875, 630.121 795.685, 630.043 837.559 C 629.997 862.399, 630.624 865.885, 634.690 863.392 C 636.089 862.534, 637.095 858.773, 639.143 846.747 C 644.036 818.006, 649.648 798.498, 657.480 783 C 664.431 769.247, 684.518 748.142, 699.115 739.256 C 709.255 733.082, 710.606 732.488, 731.500 725.009 C 750.135 718.338, 763.674 711.796, 773.500 704.714 C 803.415 683.152, 819.493 657.250, 829.500 614.500 C 835.590 588.481, 843.006 566.764, 850.098 554.181 C 866.629 524.846, 891.645 502.151, 917.500 493.028 C 929.303 488.864, 930 488.470, 930 485.964 C 930 482.023, 925.708 480.678, 911.657 480.215 C 904.421 479.977, 898.223 480.070, 897.884 480.423 M 799 540.671 C 793.284 544.997, 783.270 554.983, 776.609 563 C 766.570 575.083, 757.937 589.766, 743.662 619.035 C 725.008 657.281, 719.822 665.564, 700.482 688 C 676.737 715.547, 660.696 739, 665.600 739 C 665.930 739, 670.245 735.192, 675.190 730.537 C 684.119 722.131, 687.458 719.484, 710.500 702.541 C 724.575 692.191, 736.983 679.863, 745.851 667.415 C 756.191 652.902, 761.589 640.970, 772.506 608.500 C 783.071 577.078, 789.076 563.662, 799.643 547.876 C 802.589 543.474, 805 539.451, 805 538.936 C 805 537.264, 802.576 537.964, 799 540.671 M 449 540.200 C 449 540.861, 451.681 545.473, 454.959 550.450 C 458.236 555.428, 463.371 564.709, 466.370 571.076 C 471.486 581.935, 481 606.640, 481 609.063 C 481 609.665, 483.222 616.085, 485.939 623.329 C 496.776 652.230, 505.683 667.426, 521.295 683.649 C 530.373 693.084, 535.267 697.062, 557.500 713.083 C 564.650 718.236, 574.427 726.433, 579.227 731.299 C 584.027 736.165, 588.411 739.864, 588.968 739.520 C 592.331 737.441, 575.089 713.120, 552.487 688.058 C 535.617 669.352, 527.390 655.897, 506.591 613 C 500.133 599.679, 492.152 584.952, 488.166 579 C 473.978 557.812, 449 533.068, 449 540.200 M 355 735.666 C 349.695 736.502, 348.087 737.056, 346.570 738.573 C 343.793 741.350, 344.738 745.184, 349.969 752.358 C 352.701 756.107, 356.250 761.947, 357.854 765.337 C 362.769 775.720, 361.841 775.386, 386.307 775.587 C 408.236 775.767, 428.799 778.369, 451.500 783.835 C 510.230 797.976, 564.696 833.237, 599.732 879.801 C 609.022 892.147, 611.689 893.687, 611.271 886.461 C 610.942 880.780, 597.644 854.570, 588.659 841.894 C 549.162 786.173, 475.618 745.282, 399.155 736.528 C 387.156 735.154, 361.437 734.652, 355 735.666 M 863.500 735.981 C 860.200 736.457, 852.710 737.339, 846.856 737.941 C 827.081 739.973, 793.256 749.154, 774 757.716 C 723.938 779.976, 690.236 805.845, 665.043 841.345 C 658.255 850.912, 646.033 873.630, 642.938 882.435 C 639.265 892.886, 643.692 894.307, 650.146 884.750 C 665.150 862.532, 691.873 837.177, 719.056 819.366 C 759.629 792.782, 817.382 776.233, 872 775.540 C 881.765 775.416, 888.327 774.899, 889.734 774.145 C 891.015 773.458, 893.646 769.435, 895.898 764.723 C 898.059 760.200, 901.370 754.475, 903.255 752 C 909.957 743.204, 910.306 740.244, 904.970 737.484 C 901.473 735.676, 872.806 734.637, 863.500 735.981 M 350 787.524 C 315.399 790.522, 312.829 792.316, 324.610 805.246 C 333.673 815.193, 334.209 815.367, 348.673 813.041 C 377.879 808.344, 421.761 807.921, 449.591 812.067 C 489.439 818.003, 515.411 826.908, 552.868 847.475 C 559.167 850.934, 561 851.169, 561 848.518 C 561 844.384, 536.255 827.710, 513.500 816.511 C 465.581 792.928, 407.162 782.571, 350 787.524 M 864.500 787.063 C 839.822 787.991, 815.842 791.521, 790 798.029 C 752.996 807.349, 713.064 827.408, 691.750 847.384 C 685.405 853.330, 687.882 855.071, 696 850.370 C 729.304 831.084, 757.421 820.496, 792.500 814.032 C 811.006 810.622, 824.946 809.578, 851 809.652 C 875.805 809.722, 880.901 810.125, 914.752 814.687 C 918.994 815.259, 919.022 815.241, 926.252 807.524 C 930.238 803.269, 933.865 799.151, 934.311 798.374 C 935.590 796.143, 934.180 793.311, 931.217 792.160 C 926.763 790.431, 910.295 788.108, 898 787.474 C 891.675 787.148, 885.600 786.770, 884.500 786.634 C 883.400 786.498, 874.400 786.691, 864.500 787.063 M 384 821.535 C 369.054 822.819, 360.772 823.856, 344.335 826.501 C 320.510 830.335, 318.215 832.232, 325.992 841.660 C 328.187 844.322, 334.375 851.900, 339.742 858.500 C 352.655 874.380, 353.201 874.644, 367.572 871.934 C 380.136 869.564, 434.001 867.479, 442 869.052 C 444.475 869.538, 453.186 870.406, 461.357 870.981 C 495.282 873.365, 539.299 888.204, 565.699 906.155 C 580.149 915.981, 592.315 928.209, 597.383 938 C 599.518 942.125, 602.430 946.754, 603.855 948.287 C 610.462 955.396, 635.323 956.821, 646.407 950.725 C 649.758 948.882, 651.363 946.848, 655.260 939.501 C 669.747 912.189, 711.595 887.272, 762.500 875.648 C 795.231 868.175, 853.544 866.962, 889.249 873.012 C 899.492 874.748, 901.307 873.809, 910.322 862.103 C 914.483 856.701, 920.837 849.066, 924.443 845.136 C 936.773 831.701, 934.421 830.088, 894.500 824.603 C 842.063 817.398, 799.225 820.377, 752.905 834.448 C 700.381 850.404, 654.986 883.277, 637.484 918.033 C 634.222 924.510, 629.209 930, 626.558 930 C 624.129 930, 619.933 925.801, 617.433 920.868 C 596.726 880.005, 547.243 845.723, 487.013 830.512 C 450.255 821.229, 419.125 818.516, 384 821.535"/></g></svg>